<svg xmlns="http://www.w3.org/2000/svg" fill-rule="evenodd" clip-rule="evenodd" stroke-linejoin="round" stroke-miterlimit="2" viewBox="0 0 512 512"><g fill-rule="nonzero"><path d="M333.6 0c51.2 0 76.8 0 104.8 8.8 30.072 11 53.8 34.728 64.8 64.8 8.8 28 8.8 53.6 8.8 104.88v154.96c0 51.36 0 77.12-8.8 104.8a108.845 108.845 0 01-64.8 64.8c-28 8.96-53.6 8.96-104.8 8.96H178.4c-51.36 0-77.12 0-104.8-8.8a108.845 108.845 0 01-64.8-64.8C0 410.4 0 384.8 0 333.52V178.4c0-51.36 0-77.12 8.8-104.8 11-30.072 34.728-53.8 64.8-64.8C101.6 0 127.2 0 178.4 0h155.2z" fill="#00d632"/><path d="M339.76 190.4c4 4 10.64 4 14.4 0l20-20.8c4.24-4 4-11.2-.48-15.52a157.888 157.888 0 00-53.76-30.72l6.32-30.4c1.36-6.64-3.6-12.88-10.24-12.88h-38.72c-4.968.056-9.264 3.608-10.24 8.48l-5.6 27.04c-51.52 2.64-95.2 28.8-95.2 82.4 0 46.4 36.08 66.32 74.24 80 36.08 13.76 55.2 18.88 55.2 38.24 0 19.92-19.04 31.6-47.2 31.6-25.6 0-52.48-8.56-73.28-29.44a10.417 10.417 0 00-7.36-3.056c-2.76 0-5.408 1.104-7.36 3.056l-21.6 21.6c-4.2 4.216-4.2 11.144 0 15.36 16.8 16.56 38.08 28.56 62.336 35.2l-5.92 28.56c-1.36 6.64 3.52 12.8 10.16 12.88l38.8.32c5.032.024 9.408-3.552 10.4-8.48l5.6-27.12C322.24 392.56 360 358.4 360 308.56c0-45.92-37.6-65.28-83.2-81.04-26.08-9.68-48.64-16.32-48.64-36.24 0-19.36 21.04-27.04 42.16-27.04 26.88 0 52.72 11.12 69.6 26.32l-.16-.16z" fill="#fff"/></g></svg>