<?xml version="1.0" encoding="UTF-8"?>
<svg version="1.1" xmlns="http://www.w3.org/2000/svg" width="512" height="512">
<path d="M0 0 C1.28840286 -0.0071553 2.57680573 -0.01431061 3.9042511 -0.02168274 C7.44049544 -0.04021757 10.97598673 -0.02723564 14.51219988 -0.00759244 C18.22871263 0.00882741 21.94517885 -0.00002572 25.66171265 -0.00511169 C31.91798853 -0.00963684 38.17396596 0.00624349 44.43017578 0.03417969 C51.61914911 0.06603777 58.80757836 0.06629397 65.9965893 0.04896492 C72.94524668 0.03296413 79.8937085 0.03993208 86.84235764 0.05690193 C89.7805045 0.06369887 92.71849109 0.0628164 95.65663528 0.05535698 C133.72753034 -0.0207339 133.72753034 -0.0207339 149.00146484 8.38110352 C149.6536499 8.72544434 150.30583496 9.06978516 150.9777832 9.42456055 C165.2037076 17.21313462 173.39452954 29.78161762 178.55224609 44.89282227 C181.87281665 58.89187963 179.68957462 73.61729417 172.50146484 86.00610352 C171.49615652 87.55793855 170.47645761 89.10059851 169.43896484 90.63110352 C169.03806641 91.26661133 168.63716797 91.90211914 168.22412109 92.55688477 C153.12391808 115.48682267 120.76628528 124.45715916 95.55615234 129.65063477 C88.54426949 131.07274563 81.79764608 131.77718961 74.65795898 131.74462891 C73.38358475 131.74484795 73.38358475 131.74484795 72.08346558 131.74507141 C69.29699074 131.74437906 66.51058414 131.73661859 63.72412109 131.72875977 C61.78356462 131.72689318 59.84300768 131.72547041 57.90245056 131.72447205 C52.81109298 131.72066584 47.71976422 131.71085184 42.62841797 131.69976807 C37.42659902 131.68951308 32.22477538 131.68496568 27.02294922 131.67993164 C16.82827514 131.66922779 6.6336224 131.65217426 -3.56103516 131.63110352 C-2.08441912 122.74949016 0.54925667 114.25048816 3.19287109 105.66625977 C3.65885056 104.14086668 4.12441445 102.61534658 4.58958435 101.08970642 C5.80639349 97.10300428 7.02899384 93.11810148 8.25280762 89.13354492 C9.50022084 85.06811274 10.74169456 81.00086771 11.98388672 76.93383789 C13.79618873 71.00399826 15.61013399 65.07466653 17.42944336 59.14697266 C17.79425308 57.95801895 18.15906281 56.76906525 18.53492737 55.54408264 C19.14867511 53.56647173 19.78416478 51.5955037 20.43896484 49.63110352 C34.95896484 49.63110352 49.47896484 49.63110352 64.43896484 49.63110352 C61.95198337 60.82252014 59.44561957 71.9905683 56.75146484 83.13110352 C56.4408377 84.42926139 56.13029078 85.72743847 55.81982422 87.02563477 C55.37799805 88.85674805 55.37799805 88.85674805 54.92724609 90.72485352 C54.66468018 91.81475586 54.40211426 92.9046582 54.1315918 94.02758789 C53.43896484 96.63110352 53.43896484 96.63110352 52.43896484 98.63110352 C75.52677929 97.92557494 101.41652356 96.90488611 119.31396484 80.25610352 C125.59672654 73.50028682 128.13551959 65.40804752 128.54443359 56.27563477 C128.25815398 50.11532158 125.87642178 45.86685786 121.43896484 41.63110352 C114.19259975 36.687733 106.15240045 35.34010478 97.57299805 35.19775391 C96.71343002 35.17658005 95.853862 35.15540619 94.96824646 35.1335907 C86.01973238 34.92911083 77.0682942 34.84296413 68.11791992 34.76611328 C63.88113445 34.72603239 59.64742994 34.64945424 55.41186523 34.54052734 C50.27458878 34.40867207 45.14018695 34.34173577 40.00130272 34.31982231 C38.0543192 34.30096516 36.10740883 34.25995605 34.16140175 34.19548225 C22.64719388 33.58646116 22.64719388 33.58646116 12.65800476 38.45069885 C10.01683804 41.11698247 7.76948977 43.99227408 5.60683441 47.05367661 C3.8887291 49.37430009 1.8691098 51.33804828 -0.20556641 53.33813477 C-0.90230469 54.02713867 -1.59904297 54.71614258 -2.31689453 55.42602539 C-2.99558594 56.09182617 -3.67427734 56.75762695 -4.37353516 57.44360352 C-8.36616943 61.36250493 -12.30399964 65.26908336 -15.94775391 69.51782227 C-21.01924712 75.40825169 -26.6447185 80.75831397 -32.17822266 86.20922852 C-36.55389 90.54499615 -40.75149922 94.93235024 -44.76025391 99.60766602 C-49.10521064 104.48985168 -53.87773892 108.98229853 -58.53369141 113.56469727 C-62.16052633 117.1566028 -65.72429248 120.74430591 -69.04931641 124.61938477 C-73.19073912 129.44442506 -77.71977978 133.86022507 -82.24853516 138.31860352 C-83.9214942 139.96592334 -85.59214688 141.61558938 -87.26025391 143.26782227 C-87.99074951 143.98671631 -88.72124512 144.70561035 -89.47387695 145.44628906 C-91.65650401 147.65508768 -91.65650401 147.65508768 -93.70483398 150.40380859 C-94.31738037 151.13881592 -94.92992676 151.87382324 -95.56103516 152.63110352 C-96.22103516 152.63110352 -96.88103516 152.63110352 -97.56103516 152.63110352 C-101.72876899 141.52733719 -105.8953875 130.42315265 -110.06103516 119.31860352 C-110.36802464 118.50025024 -110.67501411 117.68189697 -110.9913063 116.83874512 C-120.88952321 90.45163095 -130.76032132 64.05461926 -140.56103516 37.63110352 C-140.67060547 38.6681543 -140.78017578 39.70520508 -140.89306641 40.77368164 C-141.31698638 44.70643599 -141.78186338 48.63353513 -142.2578125 52.56030273 C-142.45643611 54.24428554 -142.64465946 55.92953523 -142.82128906 57.6159668 C-144.898468 77.29635708 -152.42179154 93.19563449 -167.57275391 106.36938477 C-183.77964943 118.6357802 -203.02854341 124.96747776 -222.56103516 129.63110352 C-223.64017685 129.90695786 -223.64017685 129.90695786 -224.74111938 130.18838501 C-234.68629185 132.38278716 -244.85540256 131.88033661 -254.97900391 131.82641602 C-257.04836388 131.82268006 -259.11772563 131.81983584 -261.18708801 131.81784058 C-266.60064688 131.81024996 -272.0140963 131.7906413 -277.4276123 131.76843262 C-282.96491008 131.74787511 -288.50222575 131.73881778 -294.03955078 131.72875977 C-304.88009333 131.70739063 -315.7205551 131.67331063 -326.56103516 131.63110352 C-324.94058284 122.56425455 -322.475112 113.76258782 -319.99072266 104.90454102 C-319.54485898 103.30466397 -319.09931787 101.704697 -318.65408325 100.10464478 C-317.49008429 95.92486085 -316.32175116 91.74630084 -315.15246582 87.56799316 C-313.74574473 82.53768892 -312.34449172 77.50585902 -310.94230652 72.47428894 C-308.81936945 64.85872624 -306.68955932 57.24511646 -304.56103516 49.63110352 C-288.06103516 49.63110352 -271.56103516 49.63110352 -254.56103516 49.63110352 C-255.91345276 56.39319153 -257.37430292 62.80445133 -259.38134766 69.35766602 C-259.6448703 70.23135834 -259.90839294 71.10505066 -260.17990112 72.00521851 C-261.01092598 74.75685334 -261.848356 77.50648807 -262.68603516 80.25610352 C-263.25547299 82.13748462 -263.82448721 84.01899399 -264.39306641 85.90063477 C-265.7775037 90.47895298 -267.1676832 95.05549087 -268.56103516 99.63110352 C-231.4245594 97.82867929 -231.4245594 97.82867929 -200.41650391 79.22094727 C-196.45441374 73.69070351 -193.01010732 67.51687671 -192.56103516 60.63110352 C-192.40634766 58.74391602 -192.40634766 58.74391602 -192.24853516 56.81860352 C-192.35900631 50.41127684 -194.93986297 45.32596534 -199.31103516 40.75610352 C-207.38367193 35.47784101 -215.50605014 34.47322601 -225.04492188 34.51757812 C-225.87485153 34.5174321 -226.70478119 34.51728607 -227.55986023 34.51713562 C-230.28684151 34.51782898 -233.01375339 34.52559429 -235.74072266 34.53344727 C-237.63786787 34.53531349 -239.53501356 34.53673643 -241.43215942 34.53773499 C-246.41338442 34.54154403 -251.39458003 34.55136051 -256.37579346 34.56243896 C-261.46357831 34.5726878 -266.55136794 34.57724004 -271.63916016 34.58227539 C-281.61313137 34.59298426 -291.58708081 34.61004127 -301.56103516 34.63110352 C-306.56103516 24.63110352 -298.02362656 12.53686546 -295.56103516 1.63110352 C-232.53103516 1.63110352 -169.50103516 1.63110352 -104.56103516 1.63110352 C-98.29103516 16.81110352 -92.02103516 31.99110352 -85.56103516 47.63110352 C-80.56890487 59.63441576 -80.56890487 59.63441576 -75.56103516 71.63110352 C-74.90103516 71.63110352 -74.24103516 71.63110352 -73.56103516 71.63110352 C-72.16777562 70.07870011 -70.84723387 68.46080366 -69.56103516 66.81860352 C-66.34358174 62.79163057 -63.06065293 58.92053339 -59.56103516 55.13110352 C-56.26771817 51.55317889 -53.11452194 47.91570686 -50.06103516 44.13110352 C-46.22384485 39.37514933 -42.16718415 34.87605551 -38.02978516 30.38110352 C-34.83900306 26.8268146 -31.85979572 23.12139637 -28.86181641 19.40454102 C-25.64564444 15.5276614 -22.24632943 11.83262874 -18.82275391 8.13891602 C-16.49095393 5.76598751 -16.49095393 5.76598751 -15.20474243 3.0138092 C-10.80126144 -0.95493549 -5.71548079 -0.05478979 0 0 Z " fill="#030104" transform="translate(332.56103515625,133.368896484375)"/>
<path d="M0 0 C2.20075427 2.32134355 3.19949009 4.33816219 3.92578125 7.44140625 C2.63408001 13.19534813 -0.59391142 16.0993673 -5.46875 19.2578125 C-42.39525689 39.21687971 -91.60844971 41.21297773 -132.69921875 44.69140625 C-133.61621552 44.77022034 -134.53321228 44.84903442 -135.47799683 44.93023682 C-142.56776018 45.53101701 -149.66182552 46.03880782 -156.76171875 46.50390625 C-157.41470318 46.5471616 -158.06768761 46.59041695 -158.74045944 46.63498306 C-186.69943455 48.47326579 -214.60609471 48.86864779 -242.61997986 48.82176208 C-246.00019441 48.81632424 -249.38040197 48.8139554 -252.76062012 48.81188965 C-284.2800679 48.78186931 -315.67687355 48.48759523 -347.09680176 45.73498535 C-349.84731442 45.49648412 -352.59868501 45.27168021 -355.35058594 45.04980469 C-446.3500718 37.6550453 -446.3500718 37.6550453 -479.69921875 21.50390625 C-480.34383057 21.19606201 -480.98844238 20.88821777 -481.65258789 20.57104492 C-486.23323892 18.20499857 -488.83661519 15.6455501 -491.76171875 11.50390625 C-492.86079516 6.63656788 -492.86079516 6.63656788 -491.76171875 3.50390625 C-486.62456014 -3.12903601 -479.46812437 -6.6612374 -471.76171875 -9.49609375 C-471.14167969 -9.72506348 -470.52164062 -9.9540332 -469.8828125 -10.18994141 C-392.81129175 -38.0151364 -298.64956035 -34.38868602 0 0 Z M-306.38671875 -3.49609375 C-307.882699 -1.54507712 -307.882699 -1.54507712 -308.44921875 0.87890625 C-307.32222688 5.18196613 -304.39450367 7.1344141 -300.76171875 9.50390625 C-285.92603671 17.35654079 -268.26702713 17.73937883 -251.88671875 17.75390625 C-250.71119949 17.75541687 -250.71119949 17.75541687 -249.51193237 17.75695801 C-232.40720432 17.74206433 -211.81205688 17.67212374 -197.76171875 6.50390625 C-197.14296875 6.02953125 -196.52421875 5.55515625 -195.88671875 5.06640625 C-194.61216211 3.48968461 -194.61216211 3.48968461 -194.13671875 1.19140625 C-195.17030838 -3.25302917 -197.99558882 -5.12899053 -201.76171875 -7.49609375 C-229.29555101 -21.32142678 -281.02202161 -22.82157728 -306.38671875 -3.49609375 Z " fill="#030104" transform="translate(491.76171875,329.49609375)"/>
</svg>
